<svg xmlns="http://www.w3.org/2000/svg" width="40" height="40">

<symbol id="slider__previos-icon" viewBox="0 0 40 40">
    <g clip-path="url(#a)" fill="none" fill-rule="evenodd">
        <circle cx="20" cy="20" r="20" fill="currentColor" opacity=".25"/>
        <path fill="white" stroke="white" d="M24 9L13 20l11 11 1.453-1.453L15.905 20l9.548-9.547z"/>
    </g>
</symbol>

<symbol id="slider__close-icon" viewBox="0 0 16 16">
<path d="M9.328 7.914l5.793 5.793.707.707-1.414 1.414-.707-.707-5.793-5.793-5.793 5.793-.707.707L0 14.414l.707-.707L6.5 7.914.707 2.121 0 1.414 1.414 0l.707.707L7.914 6.5 13.707.707 14.414 0l1.414 1.414-.707.707-5.793 5.793z" fill="currentColor"/>
</symbol>


<symbol id="menuIcon" viewBox="0 0 16 16">
<path fill="#444444" d="M0 1h16v3h-16v-3z"></path>
<path fill="#444444" d="M0 6h16v3h-16v-3z"></path>
<path fill="#444444" d="M0 11h16v3h-16v-3z"></path>
</symbol>

</svg>